<svg id="visual" viewBox="0 0 960 540" width="960" height="540" xmlns="http://www.w3.org/2000/svg" xmlns:xlink="http://www.w3.org/1999/xlink" version="1.1"><rect x="0" y="0" width="960" height="540" fill="#001220"></rect><defs><linearGradient id="grad1_0" x1="43.8%" y1="100%" x2="100%" y2="0%"><stop offset="14.444444444444446%" stop-color="#fbae3c" stop-opacity="1"></stop><stop offset="85.55555555555554%" stop-color="#fbae3c" stop-opacity="1"></stop></linearGradient></defs><defs><linearGradient id="grad1_1" x1="43.8%" y1="100%" x2="100%" y2="0%"><stop offset="14.444444444444446%" stop-color="#fbae3c" stop-opacity="1"></stop><stop offset="85.55555555555554%" stop-color="#eb7458" stop-opacity="1"></stop></linearGradient></defs><defs><linearGradient id="grad1_2" x1="43.8%" y1="100%" x2="100%" y2="0%"><stop offset="14.444444444444446%" stop-color="#b84e6c" stop-opacity="1"></stop><stop offset="85.55555555555554%" stop-color="#eb7458" stop-opacity="1"></stop></linearGradient></defs><defs><linearGradient id="grad1_3" x1="43.8%" y1="100%" x2="100%" y2="0%"><stop offset="14.444444444444446%" stop-color="#b84e6c" stop-opacity="1"></stop><stop offset="85.55555555555554%" stop-color="#713c69" stop-opacity="1"></stop></linearGradient></defs><defs><linearGradient id="grad1_4" x1="43.8%" y1="100%" x2="100%" y2="0%"><stop offset="14.444444444444446%" stop-color="#2d2b4c" stop-opacity="1"></stop><stop offset="85.55555555555554%" stop-color="#713c69" stop-opacity="1"></stop></linearGradient></defs><defs><linearGradient id="grad1_5" x1="43.8%" y1="100%" x2="100%" y2="0%"><stop offset="14.444444444444446%" stop-color="#2d2b4c" stop-opacity="1"></stop><stop offset="85.55555555555554%" stop-color="#001220" stop-opacity="1"></stop></linearGradient></defs><defs><linearGradient id="grad2_0" x1="0%" y1="100%" x2="56.3%" y2="0%"><stop offset="14.444444444444446%" stop-color="#fbae3c" stop-opacity="1"></stop><stop offset="85.55555555555554%" stop-color="#fbae3c" stop-opacity="1"></stop></linearGradient></defs><defs><linearGradient id="grad2_1" x1="0%" y1="100%" x2="56.3%" y2="0%"><stop offset="14.444444444444446%" stop-color="#eb7458" stop-opacity="1"></stop><stop offset="85.55555555555554%" stop-color="#fbae3c" stop-opacity="1"></stop></linearGradient></defs><defs><linearGradient id="grad2_2" x1="0%" y1="100%" x2="56.3%" y2="0%"><stop offset="14.444444444444446%" stop-color="#eb7458" stop-opacity="1"></stop><stop offset="85.55555555555554%" stop-color="#b84e6c" stop-opacity="1"></stop></linearGradient></defs><defs><linearGradient id="grad2_3" x1="0%" y1="100%" x2="56.3%" y2="0%"><stop offset="14.444444444444446%" stop-color="#713c69" stop-opacity="1"></stop><stop offset="85.55555555555554%" stop-color="#b84e6c" stop-opacity="1"></stop></linearGradient></defs><defs><linearGradient id="grad2_4" x1="0%" y1="100%" x2="56.3%" y2="0%"><stop offset="14.444444444444446%" stop-color="#713c69" stop-opacity="1"></stop><stop offset="85.55555555555554%" stop-color="#2d2b4c" stop-opacity="1"></stop></linearGradient></defs><defs><linearGradient id="grad2_5" x1="0%" y1="100%" x2="56.3%" y2="0%"><stop offset="14.444444444444446%" stop-color="#001220" stop-opacity="1"></stop><stop offset="85.55555555555554%" stop-color="#2d2b4c" stop-opacity="1"></stop></linearGradient></defs><g transform="translate(960, 540)"><path d="M-270 0C-260.4 -25.2 -250.7 -50.4 -244.4 -79.4C-238.1 -108.4 -235.2 -141.2 -215.2 -156.4C-195.2 -171.5 -158.1 -169.1 -135.2 -186.1C-112.3 -203.1 -103.6 -239.6 -83.4 -256.8C-63.3 -274 -31.6 -272 0 -270L0 0Z" fill="#131f37"></path><path d="M-225 0C-217 -21 -208.9 -42 -203.7 -66.2C-198.4 -90.3 -196 -117.7 -179.3 -130.3C-162.7 -142.9 -131.7 -140.9 -112.7 -155.1C-93.6 -169.2 -86.3 -199.6 -69.5 -214C-52.7 -228.3 -26.4 -226.7 0 -225L0 0Z" fill="#4d345e"></path><path d="M-180 0C-173.6 -16.8 -167.1 -33.6 -162.9 -52.9C-158.8 -72.3 -156.8 -94.1 -143.5 -104.2C-130.1 -114.3 -105.4 -112.7 -90.1 -124C-74.9 -135.4 -69.1 -159.7 -55.6 -171.2C-42.2 -182.7 -21.1 -181.3 0 -180L0 0Z" fill="#96446e"></path><path d="M-135 0C-130.2 -12.6 -125.4 -25.2 -122.2 -39.7C-119.1 -54.2 -117.6 -70.6 -107.6 -78.2C-97.6 -85.8 -79 -84.5 -67.6 -93C-56.1 -101.5 -51.8 -119.8 -41.7 -128.4C-31.6 -137 -15.8 -136 0 -135L0 0Z" fill="#d55e64"></path><path d="M-90 0C-86.8 -8.4 -83.6 -16.8 -81.5 -26.5C-79.4 -36.1 -78.4 -47.1 -71.7 -52.1C-65.1 -57.2 -52.7 -56.4 -45.1 -62C-37.4 -67.7 -34.5 -79.9 -27.8 -85.6C-21.1 -91.3 -10.5 -90.7 0 -90L0 0Z" fill="#f88f4a"></path><path d="M-45 0C-43.4 -4.2 -41.8 -8.4 -40.7 -13.2C-39.7 -18.1 -39.2 -23.5 -35.9 -26.1C-32.5 -28.6 -26.3 -28.2 -22.5 -31C-18.7 -33.8 -17.3 -39.9 -13.9 -42.8C-10.5 -45.7 -5.3 -45.3 0 -45L0 0Z" fill="#fbae3c"></path></g><g transform="translate(0, 0)"><path d="M270 0C252.2 23.8 234.3 47.5 226.4 73.5C218.4 99.5 220.2 127.8 211.2 153.4C202.1 179 182 202.1 158.7 218.4C135.4 234.8 108.9 244.5 81.9 252C54.9 259.5 27.5 264.8 0 270L0 0Z" fill="#131f37"></path><path d="M225 0C210.1 19.8 195.3 39.6 188.6 61.3C182 83 183.5 106.5 176 127.8C168.4 149.2 151.7 168.4 132.3 182C112.8 195.7 90.7 203.8 68.2 210C45.8 216.3 22.9 220.6 0 225L0 0Z" fill="#4d345e"></path><path d="M180 0C168.1 15.8 156.2 31.7 150.9 49C145.6 66.4 146.8 85.2 140.8 102.3C134.7 119.4 121.3 134.7 105.8 145.6C90.3 156.5 72.6 163 54.6 168C36.6 173 18.3 176.5 0 180L0 0Z" fill="#96446e"></path><path d="M135 0C126.1 11.9 117.2 23.8 113.2 36.8C109.2 49.8 110.1 63.9 105.6 76.7C101 89.5 91 101 79.4 109.2C67.7 117.4 54.4 122.3 40.9 126C27.5 129.8 13.7 132.4 0 135L0 0Z" fill="#d55e64"></path><path d="M90 0C84.1 7.9 78.1 15.8 75.5 24.5C72.8 33.2 73.4 42.6 70.4 51.1C67.4 59.7 60.7 67.4 52.9 72.8C45.1 78.3 36.3 81.5 27.3 84C18.3 86.5 9.2 88.3 0 90L0 0Z" fill="#f88f4a"></path><path d="M45 0C42 4 39.1 7.9 37.7 12.3C36.4 16.6 36.7 21.3 35.2 25.6C33.7 29.8 30.3 33.7 26.5 36.4C22.6 39.1 18.1 40.8 13.6 42C9.2 43.3 4.6 44.1 0 45L0 0Z" fill="#fbae3c"></path></g></svg>